<svg xmlns="http://www.w3.org/2000/svg" viewBox="0 0 128 128"><defs><style>.a{fill:#0a1c2c;}.b{fill:#193763;}.c{fill:#a7ccdd;}.d{fill:#c160a5;}.e{fill:#bb1b8d;}</style></defs><title>icon</title><rect class="a" width="128" height="128"/><rect class="b" x="74.71" y="36.85" width="10.08" height="78.41" transform="translate(-30.42 78.67) rotate(-45)"/><rect class="c" x="48.5" y="44.27" width="10.08" height="11.15" transform="translate(-19.56 52.46) rotate(-45)"/><polygon class="d" points="37.71 45.51 31.69 39.5 23.33 41.05 27.18 33.47 23.12 25.99 31.53 27.32 37.38 21.15 38.72 29.55 46.4 33.21 38.82 37.08 37.71 45.51"/><polygon class="e" points="68.58 29.08 63.14 32.66 63.01 39.18 57.92 35.11 51.68 37 53.98 30.9 50.25 25.55 56.76 25.85 60.7 20.66 62.43 26.94 68.58 29.08"/><polygon class="e" points="41.26 63.1 34.24 62.63 29.88 68.16 28.14 61.34 21.55 58.9 27.5 55.14 27.78 48.11 33.19 52.61 39.96 50.71 37.35 57.24 41.26 63.1"/></svg>